PathFileType	4	(X/Y/Z)	C:\Users\Vitor Bertoli\OneDrive\Documents\Yolotestes\IMG_0214_Sports2D\IMG_0214_Sports2D_m_person00.trc
DataRate	CameraRate	NumFrames	NumMarkers	Units	OrigDataRate	OrigDataStartFrame	OrigNumFrames
120	120	11	22	m	120	395	633
Frame#	Time	Hip			RHip			RKnee			RAnkle			RBigToe			RSmallToe			RHeel			LHip			LKnee			LAnkle			LBigToe			LSmallToe			LHeel			Neck			Head			Nose			RShoulder			RElbow			RWrist			LShoulder			LElbow			LWrist		
		X1	Y1	Z1	X2	Y2	Z2	X3	Y3	Z3	X4	Y4	Z4	X5	Y5	Z5	X6	Y6	Z6	X7	Y7	Z7	X8	Y8	Z8	X9	Y9	Z9	X10	Y10	Z10	X11	Y11	Z11	X12	Y12	Z12	X13	Y13	Z13	X14	Y14	Z14	X15	Y15	Z15	X16	Y16	Z16	X17	Y17	Z17	X18	Y18	Z18	X19	Y19	Z19	X20	Y20	Z20	X21	Y21	Z21	X22	Y22	Z22
395	3.2916666666666665	7.745110770799864	0.9629329253737191	0.0	7.80647046865815	0.9588517458284037	0.0	8.173902633734194	0.7105592678196396	0.0	7.859475039182221	0.45780791613160976	0.0	7.926206467840176	0.2980200383695234	0.0	7.908165211727218	0.2854801126095445	0.0	7.78622060930837	0.43635063167340227	0.0	7.670449649803303	0.9821010408304494	0.0	7.547716348840382	0.5471479165570128	0.0	7.226751541424937	0.21144366607209142	0.0	7.314482411887159	0.01750379894527844	0.0	7.288381566717236	0.052075338371693786	0.0	7.153168254757994	0.18126777859512797	0.0	7.973618699814667	1.5002027476501771	0.0	8.137681563502145	1.7075335806388454	0.0	8.144837662417297	1.577570005237292	0.0	7.944585663495023	1.4948647393892975	0.0	7.666356128141618	1.4099699580681362	0.0	7.500999043110405	1.1582441014580658	0.0	7.970547625223632	1.4473653074402038	0.0	7.930559043060449	1.173549646002817	0.0	8.13686041452316	1.1374713032644397	0.0
396	3.3	7.797308529322834	0.9660486630560566	0.0	7.859440159345094	0.9610550588510102	0.0	8.234179687700635	0.7234564847791214	0.0	7.949346982198887	0.43910422515235475	0.0	8.039479625945683	0.2785355374225102	0.0	8.020315872592908	0.26540556672366106	0.0	7.878593829641408	0.40920638217568267	0.0	7.720796597431443	0.9856406574412034	0.0	7.580863101230669	0.5556055314139862	0.0	7.250256110553421	0.23142812780293756	0.0	7.316385033186723	0.02839390649634978	0.0	7.290971757567969	0.06322638754522132	0.0	7.175651023187774	0.2043142624914791	0.0	8.023125546045641	1.5027757930249273	0.0	8.186142253164093	1.7102690841157993	0.0	8.192031498670163	1.5811759442738118	0.0	7.991905215931318	1.5016710475576505	0.0	7.709405159747451	1.428042203051069	0.0	7.536464841255825	1.1802508798252447	0.0	8.029522397508636	1.4468857943644782	0.0	7.992292375512001	1.1828421608619568	0.0	8.198135755346351	1.1657056320521304	0.0
397	3.308333333333333	7.85002319993947	0.9693922741165062	0.0	7.911897296518543	0.963950211600708	0.0	8.290938735515798	0.7332696125794408	0.0	8.037131703347182	0.41948161592082495	0.0	8.148861317306542	0.2607614703094657	0.0	8.12917237109349	0.2464778840595998	0.0	7.969234316186121	0.3818458787109035	0.0	7.772601654738947	0.9894835230311388	0.0	7.618728367268073	0.5633965268579659	0.0	7.27788788308222	0.25341421574254347	0.0	7.320895543283944	0.04303579463067801	0.0	7.296563428697799	0.07803810243750003	0.0	7.202379022691268	0.2302113495939571	0.0	8.073292062264828	1.505852388335155	0.0	8.23560809226462	1.7128136628906327	0.0	8.239772783899301	1.5844678295009251	0.0	8.039541600541257	1.5083278157671594	0.0	7.753669716446963	1.4434686995677695	0.0	7.575443895725101	1.198577490290544	0.0	8.088096811386944	1.4477914102825573	0.0	8.051549785839786	1.1933508885574953	0.0	8.255188288627302	1.1915095356168028	0.0
398	3.3166666666666664	7.902903018013554	0.9727614568438734	0.0	7.9637196569622635	0.9674711652178907	0.0	8.344373546488029	0.7396638366905567	0.0	8.121968300059963	0.3988992737547043	0.0	8.253192831653559	0.2443198915748163	0.0	8.233385556366107	0.2284796694134902	0.0	8.057060363571324	0.35449286420279597	0.0	7.825381470861029	0.9934460351271596	0.0	7.661600463317627	0.5698329864393116	0.0	7.309824571287912	0.2773417560436565	0.0	7.328596799028259	0.061767080196833406	0.0	7.305885919066558	0.09684345155782027	0.0	7.233612426260891	0.258970742959628	0.0	8.124176564933023	1.5093762041765117	0.0	8.286128585711564	1.715178859711795	0.0	8.288193981445282	1.587392681235432	0.0	8.087552987333822	1.5145875162559126	0.0	7.799145986146588	1.4555943341592503	0.0	7.617850376340741	1.2124099482040431	0.0	8.145998556581903	1.4500144199930973	0.0	8.108197097496186	1.2044415828477264	0.0	8.308386965241988	1.2138119516014263	0.0
399	3.3249999999999997	7.955600334812411	0.975987888748321	0.0	8.014819354508715	0.9715113242183279	0.0	8.39472519603153	0.7424577091850749	0.0	8.203008808010424	0.37734929354891217	0.0	8.351453056904166	0.22874282967915216	0.0	8.331729070173251	0.2111387163550045	0.0	8.14103709568891	0.32736348765017553	0.0	7.878695346963959	0.9973359401625282	0.0	7.7095793949483795	0.5743766568537851	0.0	7.346225245881414	0.3030809454383371	0.0	7.340132774777737	0.08482865752548108	0.0	7.319662086294181	0.11982333679350271	0.0	7.269585226481405	0.29048165743109056	0.0	8.175790532646689	1.5132799551565772	0.0	8.337762266773023	1.7173838390274307	0.0	8.337458516903455	1.589937261266131	0.0	8.13600023679733	1.5202236212139284	0.0	7.845798636155715	1.4639092288476931	0.0	7.663631839324573	1.221132976331443	0.0	8.202942223082816	1.4534240057100845	0.0	8.162111879917502	1.2154462335611407	0.0	8.358126399879595	1.2317088329642574	0.0
400	3.3333333333333335	8.007856211062	0.978957758924362	0.0	8.065209054859709	0.9759467285403206	0.0	8.442241694761206	0.7416231089260402	0.0	8.279477217944933	0.35490720095717304	0.0	8.442800797923066	0.21358940041780677	0.0	8.423200549030307	0.1942115401412906	0.0	8.220248036843746	0.3006472711119545	0.0	7.932187096474598	1.0010024717909065	0.0	7.762547057729756	0.5766929203650929	0.0	7.38724198363622	0.33041765728515426	0.0	7.356193228013427	0.11230272021259897	0.0	7.338546533043597	0.14696543301372667	0.0	7.310498341618533	0.3244469659189202	0.0	8.228069445912878	1.5174494583246172	0.0	8.39057886333457	1.7194228201161434	0.0	8.387731647767598	1.59210185874705	0.0	8.184939481953066	1.5250482826003013	0.0	7.893584059650826	1.4680920211760606	0.0	7.7127758624934755	1.2243593736853433	0.0	8.258638182471572	1.4578459438684443	0.0	8.213145878499633	1.2257418720076987	0.0	8.404758944538592	1.244481062296734	0.0
401	3.341666666666667	8.059541378066845	0.9816034834964897	0.0	8.115031559960645	0.9806429209611381	0.0	8.48717018284353	0.7372669508843672	0.0	8.350688976721356	0.331750425258697	0.0	8.526568220381986	0.19851191610899077	0.0	8.507048620585794	0.17751934597982105	0.0	8.293905540991052	0.27452661563824987	0.0	7.985605326914333	1.0043520327805782	0.0	7.820198698123719	0.5766821255805912	0.0	7.4330292278753065	0.35904933216540613	0.0	7.377470981665872	0.14400966319231692	0.0	7.363051406023453	0.17802642375964547	0.0	7.356537672115525	0.3603910760974677	0.0	8.280878034811725	1.5217288780611486	0.0	8.444635958104467	1.721222999822524	0.0	8.439167141752085	1.5938340866985556	0.0	8.234412729172707	1.5289210096259254	0.0	7.942453902959263	1.4679950625088278	0.0	7.765311812692096	1.2219286642610332	0.0	8.312792511668023	1.4630653463365428	0.0	8.26114042862876	1.2347812102278999	0.0	8.44854005636667	1.251603874041274	0.0
402	3.35	8.110663376981073	0.9838934041429535	0.0	8.164524478613224	0.9854472651965479	0.0	8.529752263550971	0.729624533308682	0.0	8.416066493765976	0.30815447539830104	0.0	8.60225072038075	0.18327796585613018	0.0	8.582744577252493	0.1609484726800844	0.0	8.36135447975084	0.24919285773414124	0.0	8.038826187014044	1.0073361422864584	0.0	7.88209960699765	0.5744735735061196	0.0	7.483736511672094	0.3885864258289565	0.0	7.404603524168723	0.17942612936443506	0.0	7.393518497648425	0.21248074954331309	0.0	7.407872010314828	0.3977004875906936	0.0	8.334038519815888	1.5259383407678004	0.0	8.499964984842947	1.7226304018778045	0.0	8.491907155265537	1.594991559042544	0.0	8.284434041796919	1.5317398339979464	0.0	7.99236697562417	1.4636172105646696	0.0	7.821300147204186	1.2139003272758477	0.0	8.36514453571708	1.4688134899552194	0.0	8.305989866383456	1.2421053840682412	0.0	8.489598227040398	1.2527747834569898	0.0
403	3.3583333333333334	8.161342693529583	0.9858499665093247	0.0	8.213924639965066	0.9902025133331745	0.0	8.570209921658279	0.7190705245262774	0.0	8.475179568914296	0.2844908466858236	0.0	8.66952310885282	0.1677488048219176	0.0	8.649944584088303	0.14443751009372885	0.0	8.422102816260953	0.22484619209990636	0.0	8.091872328154047	1.009940695855319	0.0	7.947735276006136	0.5703933771050377	0.0	7.539467819889879	0.4185601587973842	0.0	7.438119884750778	0.21769566321840955	0.0	7.430213422768004	0.24949598574849605	0.0	7.464598210973401	0.43564670552979073	0.0	8.387363373921566	1.5298730573421297	0.0	8.556536711499884	1.7234516583543265	0.0	8.546012050740996	1.5953929194866654	0.0	8.334974836865474	1.533426329665653	0.0	8.04333044165312	1.4551017482991642	0.0	7.880824638491558	1.200573798104407	0.0	8.41556864048307	1.474758611840599	0.0	8.347738895450346	1.247384719936574	0.0	8.527954688287467	1.2479606286732596	0.0
404	3.3666666666666667	8.211759647987359	0.9875529515277192	0.0	8.263394500797018	0.9947645768814566	0.0	8.608751969946477	0.7060967348602569	0.0	8.527783495781266	0.2612052718900448	0.0	8.728266283721782	0.15185404722945442	0.0	8.708483164086386	0.12796236257146054	0.0	8.475848887259978	0.20169495416261374	0.0	8.144883039582687	1.012171506723449	0.0	8.016572626903633	0.5649183368771015	0.0	7.600228345770121	0.44844128949199336	0.0	7.478413875720551	0.257738207066799	0.0	7.473407910251023	0.288009110758862	0.0	7.526679979969861	0.4734130865589066	0.0	8.440693307632099	1.5333144403637855	0.0	8.614192293231595	1.7235315906974344	0.0	8.601342844229938	1.5949140674186497	0.0	8.385976338062765	1.5339219405521674	0.0	8.095444982095733	1.442741084136407	0.0	7.943997123897314	1.1825080488685429	0.0	8.46416502619261	1.4805330497441829	0.0	8.386662441301581	1.2504564152258784	0.0	8.563580974885845	1.2374286961862606	0.0
405	3.375	8.262099615669909	0.9890921694027862	0.0	8.31301035328011	0.9990025122742654	0.0	8.645587622818995	0.6912506271763365	0.0	8.573816669309434	0.23875944898064405	0.0	8.778573517789743	0.1356096957071595	0.0	8.758393008724475	0.11154454777493523	0.0	8.52248278405346	0.17994403848706378	0.0	8.198043817737867	1.0140331940567786	0.0	8.08812458872878	0.5586056585050934	0.0	7.665898655325622	0.47766460406765954	0.0	7.525728498364632	0.29837406377299885	0.0	7.523314417450432	0.3268559125275175	0.0	7.593936602434764	0.5101510100540173	0.0	8.49391707824203	1.5360633569673356	0.0	8.672620789976849	1.7227927061800687	0.0	8.657548992968325	1.5935258410578301	0.0	8.437389308171259	1.5331938761978656	0.0	8.148911925836925	1.4269525156197604	0.0	8.01095846503558	1.1604836743961109	0.0	8.511228646916631	1.4858115582509206	0.0	8.42322604693936	1.2513458547487004	0.0	8.596420312361115	1.2217404255368325	0.0
